<?xml version="1.0" encoding="UTF-8"?>
<!-- The Best Svg Icon site in the world: iconSvg.co, Visit us! https://iconsvg.co -->
<svg width="800px" height="800px" version="1.1" viewBox="144 144 512 512" xmlns="http://www.w3.org/2000/svg">
 <defs>
  <clipPath id="a">
   <path d="m148.09 148.09h503.81v503.81h-503.81z"/>
  </clipPath>
 </defs>
 <g clip-path="url(#a)">
  <path d="m372.39 149.59c-64.297 7.4805-124 39.367-165.07 88.441-63.902 76.238-77.156 181.35-34.379 270.71 25.324 52.621 65.742 93.035 118.23 118.23 89.492 42.91 194.6 29.656 270.84-34.25 56.555-47.238 89.887-118.89 89.887-192.63s-33.328-145.39-89.887-192.63c-52.488-44.09-122.95-65.48-189.61-57.867zm115.34 197.22 85.555 93.035-4.4609 4.7227c-2.3633 2.625-14.566 15.746-27.031 29.395-12.465 13.516-23.227 24.539-23.883 24.539-0.52344 0-27.555-28.738-59.707-63.773l-58.656-63.641-5.5117 5.6406c-3.0195 3.1484-29.262 31.492-58.129 62.984-29 31.492-53.145 57.605-53.801 58s-11.941-11.152-25.324-25.719c-13.254-14.434-25.59-27.82-27.426-29.656l-3.2812-3.543 4.5938-4.8555c2.4922-2.625 41.465-45.008 86.605-94.086 62.066-67.445 82.406-88.836 83.457-87.656 0.91797 0.91797 40.023 43.434 87 94.609z"/>
 </g>
</svg>